<?xml version="1.0" encoding="UTF-8" standalone="no"?>
<!-- Created with Inkscape (http://www.inkscape.org/) -->

<svg
   width="210mm"
   height="297mm"
   viewBox="0 0 793.70081 1122.5197"
   version="1.1"
   id="svg1"
   inkscape:version="1.3.2 (091e20e, 2023-11-25, custom)"
   sodipodi:docname="thanks.svg"
   xmlns:inkscape="http://www.inkscape.org/namespaces/inkscape"
   xmlns:sodipodi="http://sodipodi.sourceforge.net/DTD/sodipodi-0.dtd"
   xmlns="http://www.w3.org/2000/svg"
   xmlns:svg="http://www.w3.org/2000/svg">
  <sodipodi:namedview
     id="namedview1"
     pagecolor="#ffffff"
     bordercolor="#666666"
     borderopacity="1.0"
     inkscape:showpageshadow="2"
     inkscape:pageopacity="0.0"
     inkscape:pagecheckerboard="0"
     inkscape:deskcolor="#d1d1d1"
     inkscape:document-units="mm"
     inkscape:zoom="5.5517955"
     inkscape:cx="247.84775"
     inkscape:cy="449.49422"
     inkscape:window-width="1920"
     inkscape:window-height="1017"
     inkscape:window-x="-8"
     inkscape:window-y="-8"
     inkscape:window-maximized="1"
     inkscape:current-layer="layer1" />
  <defs
     id="defs1">
    <rect
       x="220.46921"
       y="452.46621"
       width="260.81651"
       height="203.1775"
       id="rect1" />
  </defs>
  <g
     inkscape:label="Ebene 1"
     inkscape:groupmode="layer"
     id="layer1">
    <g
       inkscape:label="Hershey Text"
       style="fill:none;stroke:#000000;stroke-linecap:round;stroke-linejoin:round"
       id="g43">
      <g
         transform="translate(170.035, 428.33)"
         id="g42">
        <path
           d="M 346 472 L 284 472 L 220 504 L 189 567 L 220 630 L 315 662 L 410 662 L 536 630 L 630 630 L 693 662 M 536 630 L 472 410 L 410 220 L 346 94.5 L 284 31.5 L 220 0 L 158 0 L 94.5 31.5 L 63 94.5 L 63 158 L 94.5 189 L 158 189 L 220 158"
           style="stroke-width:0.2584in"
           transform="scale(0.04, -0.04)"
           id="path36" />
        <path
           d="M 31.5 158 L 94.5 252 L 189 410 L 220 472 L 252 567 L 252 630 L 220 662 L 158 630 L 126 567 L 94.5 441 L 63 252 L 31.5 0 M 31.5 0 L 63 94.5 L 94.5 158 L 158 252 L 220 284 L 284 284 L 315 252 L 315 189 L 284 94.5 L 284 31.5 L 315 0 L 346 0 L 410 31.5 L 441 63 L 504 158"
           style="stroke-width:0.2584in"
           transform="matrix(0.04 0 0 -0.04 23.92 0)"
           id="path37" />
        <path
           d="M 315 189 L 284 252 L 220 284 L 158 284 L 94.5 252 L 63 220 L 31.5 158 L 31.5 94.5 L 63 31.5 L 126 0 L 189 0 L 252 31.5 L 284 94.5 L 346 284 L 315 126 L 315 31.5 L 346 0 L 378 0 L 441 31.5 L 472 63 L 536 158"
           style="stroke-width:0.2584in"
           transform="matrix(0.04 0 0 -0.04 42.8 0)"
           id="path38" />
        <path
           d="M 31.5 158 L 94.5 252 L 158 284 L 189 252 L 189 220 L 158 94.5 L 126 0 M 158 94.5 L 189 158 L 252 252 L 315 284 L 378 284 L 410 252 L 410 189 L 378 94.5 L 378 31.5 L 410 0 L 441 0 L 504 31.5 L 536 63 L 598 158"
           style="stroke-width:0.2584in"
           transform="matrix(0.04 0 0 -0.04 62.96 0)"
           id="path39" />
        <path
           d="M 31.5 158 L 94.5 252 L 189 410 L 220 472 L 252 567 L 252 630 L 220 662 L 158 630 L 126 567 L 94.5 441 L 63 252 L 31.5 0 M 31.5 0 L 63 94.5 L 94.5 158 L 158 252 L 220 284 L 284 284 L 315 252 L 315 189 L 252 158 L 158 158 M 158 158 L 220 126 L 252 31.5 L 284 0 L 315 0 L 378 31.5 L 410 63 L 472 158"
           style="stroke-width:0.2584in"
           transform="matrix(0.04 0 0 -0.04 85.64 0)"
           id="path40" />
        <path
           d="M 31.5 158 L 94.5 252 L 126 315 L 126 252 L 189 158 L 220 94.5 L 220 31.5 L 158 0 M 31.5 31.5 L 94.5 0 L 220 0 L 284 31.5 L 315 63 L 378 158"
           style="stroke-width:0.2584in"
           transform="matrix(0.04 0 0 -0.04 103.28 0)"
           id="path41" />
        <path
           d="M 353 662 L 321 630 L 258 252 M 353 630 L 258 252 M 353 662 L 384 630 L 258 252 M 195 63 L 164 31.5 L 195 0 L 227 31.5 L 195 63"
           style="stroke-width:0.2584in"
           transform="matrix(0.04 0 0 -0.04 117.12 0)"
           id="path42" />
      </g>
    </g>
  </g>
</svg>
