<?xml version="1.0" encoding="UTF-8" standalone="no"?>
<!-- Created with Inkscape (http://www.inkscape.org/) -->

<svg
   width="210mm"
   height="297mm"
   viewBox="0 0 793.70081 1122.5197"
   version="1.1"
   id="svg1"
   inkscape:version="1.3.2 (091e20e, 2023-11-25, custom)"
   sodipodi:docname="train.svg"
   xmlns:inkscape="http://www.inkscape.org/namespaces/inkscape"
   xmlns:sodipodi="http://sodipodi.sourceforge.net/DTD/sodipodi-0.dtd"
   xmlns="http://www.w3.org/2000/svg"
   xmlns:svg="http://www.w3.org/2000/svg">
  <sodipodi:namedview
     id="namedview1"
     pagecolor="#ffffff"
     bordercolor="#666666"
     borderopacity="1.0"
     inkscape:showpageshadow="2"
     inkscape:pageopacity="0.0"
     inkscape:pagecheckerboard="0"
     inkscape:deskcolor="#d1d1d1"
     inkscape:document-units="mm"
     inkscape:zoom="11.103591"
     inkscape:cx="190.02861"
     inkscape:cy="465.66014"
     inkscape:window-width="1920"
     inkscape:window-height="1017"
     inkscape:window-x="-8"
     inkscape:window-y="-8"
     inkscape:window-maximized="1"
     inkscape:current-layer="layer1" />
  <defs
     id="defs1">
    <rect
       x="220.46921"
       y="452.46621"
       width="260.81651"
       height="203.1775"
       id="rect1" />
  </defs>
  <g
     inkscape:label="Ebene 1"
     inkscape:groupmode="layer"
     id="layer1">
    <g
       inkscape:label="Hershey Text"
       style="fill:none;stroke:#000000;stroke-linecap:round;stroke-linejoin:round"
       id="g76">
      <g
         transform="translate(147.61, 460.302)"
         id="g75">
        <path
           d="M 31.5 158 L 94.5 252 L 158 378 M 252 662 L 63 94.5 L 63 31.5 L 94.5 0 L 158 0 L 220 31.5 L 252 63 L 315 158 M 63 410 L 284 410"
           style="stroke-width:0.2584in"
           transform="scale(0.04, -0.04)"
           id="path71" />
        <path
           d="M 31.5 158 L 94.5 252 L 126 315 L 126 252 L 220 252 L 252 220 L 252 158 L 220 63 L 220 31.5 L 252 0 L 284 0 L 346 31.5 L 378 63 L 441 158"
           style="stroke-width:0.2584in"
           transform="matrix(0.04 0 0 -0.04 11.36 0)"
           id="path72" />
        <path
           d="M 315 189 L 284 252 L 220 284 L 158 284 L 94.5 252 L 63 220 L 31.5 158 L 31.5 94.5 L 63 31.5 L 126 0 L 189 0 L 252 31.5 L 284 94.5 L 346 284 L 315 126 L 315 31.5 L 346 0 L 378 0 L 441 31.5 L 472 63 L 536 158"
           style="stroke-width:0.2584in"
           transform="matrix(0.04 0 0 -0.04 27.76 0)"
           id="path73" />
        <path
           d="M 126 441 L 126 410 L 158 410 L 158 441 L 126 441 M 31.5 158 L 94.5 284 L 31.5 94.5 L 31.5 31.5 L 63 0 L 94.5 0 L 158 31.5 L 189 63 L 252 158"
           style="stroke-width:0.2584in"
           transform="matrix(0.04 0 0 -0.04 47.92 0)"
           id="path74" />
        <path
           d="M 31.5 158 L 94.5 252 L 158 284 L 189 252 L 189 220 L 158 94.5 L 126 0 M 158 94.5 L 189 158 L 252 252 L 315 284 L 378 284 L 410 252 L 410 189 L 378 94.5 L 378 31.5 L 410 0 L 441 0 L 504 31.5 L 536 63 L 598 158"
           style="stroke-width:0.2584in"
           transform="matrix(0.04 0 0 -0.04 56.72 0)"
           id="path75" />
      </g>
    </g>
  </g>
</svg>
